<?xml version="1.0" encoding="utf-8"?>
<!-- Generator: Adobe Illustrator 16.0.4, SVG Export Plug-In . SVG Version: 6.00 Build 0)  -->
<!DOCTYPE svg PUBLIC "-//W3C//DTD SVG 1.1//EN" "http://www.w3.org/Graphics/SVG/1.1/DTD/svg11.dtd">
<svg version="1.1" id="Layer_1" xmlns="http://www.w3.org/2000/svg" xmlns:xlink="http://www.w3.org/1999/xlink" x="0px" y="0px"
	 width="352.887px" height="136.363px" viewBox="0 0 352.887 136.363" enable-background="new 0 0 352.887 136.363"
	 xml:space="preserve">
<g>
	<text transform="matrix(1 0 0 1 160.7505 80.9023)" fill="#FFFFFF" font-family="'Futura-Medium'" font-size="50.1909">8Pounds</text>
	<g>
		<circle fill="none" stroke="#FFFFFF" stroke-width="6.7432" stroke-miterlimit="10" cx="68.182" cy="68.182" r="64.81"/>
		<path fill="#494949" stroke="#FFFFFF" stroke-width="0.5619" stroke-miterlimit="10" d="M73.225,80.901
			c0.083-0.115,0.165-0.231,0.25-0.345c-0.293-1.522-0.851-3.021-1.672-4.498l-0.691-0.51C72.063,77.185,72.783,78.98,73.225,80.901
			z"/>
		<g>
			<path fill="#FFFFFF" d="M54.119,69.524c-10.811,1.553-18.313,11.573-16.762,22.384c1.551,10.808,11.572,18.312,22.381,16.761
				c6.319-0.908,11.503-4.713,14.415-9.874c2.691,7.24,10.756,11.837,19.461,10.587c9.896-1.421,16.873-9.855,15.584-18.839
				c-1.291-8.981-10.357-15.11-20.253-13.689c-5.281,0.758-9.73,3.515-12.537,7.286c0.171,0.857,0.259,1.721,0.261,2.591
				c0.648-1.086,1.585-1.975,2.457-2.901c1.963-1.789,4.359-2.75,6.895-3.406c2.767-0.717,5.526-0.68,8.257,0.097
				c0.709,0.2,1.438,0.334,2.161,0.499c2.174,1.112,4.312,2.271,5.796,4.253c2.965,3.959,3.419,8.165,1.105,12.651
				c-0.799,1.545-1.878,2.859-3.315,3.896c-1.782,1.344-3.723,2.411-5.928,2.882c-3.404,0.729-6.8,0.846-10.1-0.381
				c-1.63-0.605-3.31-1.119-4.625-2.31c-0.45-0.408-0.908-0.801-1.262-1.292c-0.212-0.33-0.438-0.65-0.712-0.936
				c-0.896-1.228-1.546-2.477-1.954-3.745c-0.253-0.787-0.412-1.584-0.476-2.386c-0.436,0.881-0.944,1.695-1.538,2.436
				c-0.566,0.707-1.208,1.351-1.938,1.919c-1.963,1.596-4.107,2.86-6.555,3.396c-3.776,0.828-7.552,0.917-11.24-0.616
				c-1.82-0.759-3.696-1.404-5.18-2.867c-0.507-0.499-1.021-0.981-1.421-1.582c-0.24-0.403-0.496-0.794-0.808-1.145
				c-3.339-4.929-3.748-10.096-1.179-15.458c0.7-1.463,1.831-2.608,2.871-3.811c2.156-2.135,4.808-3.26,7.618-4.014
				c2.894-0.777,5.79-0.734,8.672,0.096"/>
			<path fill="#FFFFFF" d="M3.28,53.057c0,0,27.593,8.452,28.569,8.377c0,0,1.815,0.489,3.427-4.52c0,0,14.037-48.247,61.284-25.001
				c0,0,29.448,15.938,11.628,44.108c0,0,8.027-13.028-2.493-28.187c0,0-19.827-26.372-49.048-12.249
				c0,0-13.275,6.386-19.686,27.578c0,0-1.071,2.202,0.572,2.676c0,0,38.679,10.399,58.609,10.779c0,0-4.644,1.515-21.274-0.8
				c0,0-47.939-6.362-66.925-14.2C7.944,61.618,1.224,59.785,3.28,53.057z"/>
			<path fill="#FFFFFF" d="M45.083,61.632c0,0,21.657,17.598,27.678,21.497l1.625-3.744c0,0-22.723-19.349-25.8-24.246
				L45.083,61.632z"/>
			<path fill="#FFFFFF" d="M75.194,74.63l0.164,2.971c0,0,30.335-3.975,33.005-4.308l-4.244-5.701
				C104.119,67.593,79.927,73.994,75.194,74.63z"/>
		</g>
		<path fill="#494949" stroke="#FFFFFF" stroke-width="0.5619" stroke-miterlimit="10" d="M56.943,93.549"/>
	</g>
</g>
</svg>
